PathFileType  4	(X/Y/Z) C:\Users\antoi\Documents\MyRepositories\mobilecap\ResultsAnalysis
DataRate	CameraRate	NumFrames	NumMarkers	Units	OrigDataRate	OrigDataStartFrame	OrigNumFrames
100.0	100.0	6	51	mm	100.0	1428	1631
Frame#	Time	r_knee			r_shank_antsup			r_ankle			r_calc			r_5meta			r_toe			L_knee			L_shank_antsup			L_ankle			L_calc			L_5meta			L_toe			r_sh2			r_sh3			r_sh4			L_sh2			L_sh3			r_thigh1			r_thigh2			r_thigh3			r_thigh4			r_thigh5			L_thigh1			L_thigh2			L_thigh3			L_thigh4			r.ASIS			r.PSIS			L.ASIS			L.PSIS			C7			R_Shoulder			L_Shoulder			R_Sternum			L_Sternum			R_humerus			R_elbow_med			R_elbow_lat			R_forearm			R_wrist_radius			R_wrist_ulna			L_humerus			L_elbow_med			L_elbow_lat			L_forearm			L_wrist_radius			L_wrist_ulna			R_HJC			L_HJC			R_HJC_reg			L_HJC_reg			
		X1	Y1	Z1	X2	Y2	Z2	X3	Y3	Z3	X4	Y4	Z4	X5	Y5	Z5	X6	Y6	Z6	X7	Y7	Z7	X8	Y8	Z8	X9	Y9	Z9	X10	Y10	Z10	X11	Y11	Z11	X12	Y12	Z12	X13	Y13	Z13	X14	Y14	Z14	X15	Y15	Z15	X16	Y16	Z16	X17	Y17	Z17	X18	Y18	Z18	X19	Y19	Z19	X20	Y20	Z20	X21	Y21	Z21	X22	Y22	Z22	X23	Y23	Z23	X24	Y24	Z24	X25	Y25	Z25	X26	Y26	Z26	X27	Y27	Z27	X28	Y28	Z28	X29	Y29	Z29	X30	Y30	Z30	X31	Y31	Z31	X32	Y32	Z32	X33	Y33	Z33	X34	Y34	Z34	X35	Y35	Z35	X36	Y36	Z36	X37	Y37	Z37	X38	Y38	Z38	X39	Y39	Z39	X40	Y40	Z40	X41	Y41	Z41	X42	Y42	Z42	X43	Y43	Z43	X44	Y44	Z44	X45	Y45	Z45	X46	Y46	Z46	X47	Y47	Z47	X48	Y48	Z48	X49	Y49	Z49	X50	Y50	Z50	X51	Y51	Z51	

1428	14.27000000	-279.46861	543.19191	-480.53571	-259.01643	465.94094	-459.49987	-313.66715	104.38003	-473.91960	-368.70169	53.31771	-524.03504	-177.75778	38.51571	-418.65562	-136.40574	62.81301	-474.78022	-260.22671	539.15883	-777.52037	-235.09706	420.67751	-784.84050	-303.82923	95.54942	-743.68651	-369.88524	53.24639	-701.78483	-154.99991	33.21837	-787.79839	-126.28146	58.62717	-723.99706	-263.27915	353.11407	-448.51986	-336.34511	468.82317	-450.61089	-345.16305	352.66079	-448.81512	-322.89207	433.81343	-800.58660	-327.14292	313.19818	-793.20411	-243.32772	868.65285	-455.11239	-222.19570	758.48168	-462.42791	-272.61098	722.37818	-437.88127	-354.31145	841.72391	-461.73182	-325.48767	728.35231	-455.43858	-217.51822	863.55766	-812.90703	-197.42970	726.80512	-803.87057	-332.48464	845.31344	-824.24202	-305.57528	709.41555	-816.24458	-223.38246	1051.84667	-508.82116	-402.76926	1115.96790	-601.56563	-210.55054	1046.27256	-769.56427	-398.75262	1114.67778	-708.64441	-283.37141	1615.01010	-656.72484	-225.95655	1571.13619	-473.98260	-191.59488	1574.27728	-813.13545	-142.41060	1532.99143	-613.38829	-138.00919	1528.60734	-666.91618	-310.62920	1311.94186	-388.63045	-369.69241	1234.29320	-464.02976	-354.98147	1233.09695	-380.05617	-302.22650	1079.85517	-370.82449	-266.45410	970.25482	-383.33895	-310.03646	971.71464	-373.45320	-256.13242	1317.83671	-898.77059	-334.10349	1249.06284	-844.23491	-303.01232	1240.67258	-905.62375	-269.49529	1069.21117	-904.64579	-244.31916	975.39037	-886.67233	-281.93196	970.29912	-897.37648	-318.59658	985.95311	-522.50831	-302.21330	980.29693	-752.22322	-304.04752	985.26015	-548.14900	-297.58752	983.18551	-720.35328	
1429	14.28000000	-282.16176	543.42362	-480.53421	-261.35653	466.34180	-459.91104	-313.75849	104.30211	-473.84956	-368.77203	53.26704	-523.99459	-177.78368	38.45481	-418.63862	-136.46168	62.86831	-474.69881	-263.82498	539.59905	-777.40410	-238.08999	421.55484	-785.08187	-304.03813	95.55165	-743.69902	-369.96531	53.22482	-701.76478	-155.03875	33.22632	-787.72956	-126.27217	58.71439	-723.97999	-264.93388	353.53577	-448.71839	-338.80168	468.78771	-451.01021	-346.85684	352.71724	-449.12559	-325.99296	433.92496	-800.66537	-329.31751	313.23493	-793.10036	-241.49047	868.23550	-454.79489	-221.66635	758.33442	-462.28939	-272.75948	722.86104	-437.82839	-353.10635	843.44854	-461.17195	-325.57245	729.55768	-455.35595	-216.06777	863.99111	-813.21947	-198.55113	726.88816	-803.83104	-332.54363	847.91388	-826.74246	-306.55376	710.83577	-816.05586	-220.64354	1052.90438	-509.64306	-399.65299	1116.40975	-601.15909	-207.31031	1047.48898	-769.55106	-395.57842	1115.31547	-707.80951	-287.60113	1616.36685	-656.90629	-229.79546	1573.79180	-474.31451	-196.26500	1576.56684	-813.42197	-145.29893	1536.40945	-613.48546	-141.12787	1532.05819	-667.20771	-310.60454	1313.28561	-389.02036	-368.38723	1235.15836	-464.45608	-353.74928	1234.09351	-380.27332	-300.23124	1081.17540	-371.11309	-264.15175	971.59400	-383.64710	-307.75023	972.88013	-373.86189	-256.97501	1319.34085	-897.49834	-333.74409	1249.80437	-843.15932	-302.86404	1241.69006	-904.67470	-268.57987	1070.57695	-904.13403	-243.00397	976.64428	-886.27317	-280.61709	971.47525	-896.82752	-315.11617	986.55557	-522.55120	-298.99834	981.33122	-752.29503	-300.72196	986.15649	-548.98040	-294.16313	984.39538	-720.64822	
1430	14.29000000	-285.10380	543.93665	-480.63405	-263.65633	466.63504	-460.30422	-313.88657	104.16997	-473.83722	-368.84077	53.19757	-523.96450	-177.86465	38.38653	-418.62148	-136.50620	62.89161	-474.61409	-267.48619	539.57978	-776.98861	-241.12720	422.29507	-785.20878	-304.23500	95.45511	-743.64852	-370.03456	53.12964	-701.69050	-155.10710	33.19481	-787.62310	-126.32871	58.77463	-723.96320	-266.53318	353.87904	-448.81089	-340.79577	469.02299	-451.18529	-348.66214	352.83190	-449.60710	-329.05338	433.97587	-800.67339	-331.45216	313.17367	-793.07179	-239.43206	868.15667	-454.67321	-221.18905	757.99736	-462.23426	-272.89401	723.15494	-437.87102	-351.64813	844.59944	-461.08706	-325.65086	730.50288	-455.42211	-214.76644	864.10955	-813.27838	-199.19076	726.75810	-803.95063	-331.98348	849.88293	-827.89997	-307.50926	712.14739	-816.02080	-217.75973	1053.63407	-510.44657	-396.61876	1116.73511	-600.81415	-204.16904	1048.55577	-769.72927	-392.61828	1115.77216	-707.21748	-291.73475	1617.45031	-657.13902	-233.54644	1576.06443	-474.72016	-200.59564	1578.81979	-813.70935	-148.34373	1539.49878	-613.71225	-144.20275	1535.14350	-667.49513	-310.54452	1314.51168	-389.18793	-367.23081	1235.88721	-464.68564	-352.55928	1234.82622	-380.49444	-298.25559	1082.24926	-371.38370	-261.75188	972.75624	-383.93081	-305.36596	973.97229	-374.11954	-258.01811	1320.71167	-897.09614	-333.50549	1250.47302	-842.34795	-302.86545	1242.51865	-903.85465	-267.68549	1071.78485	-903.69157	-241.65087	977.77942	-886.03404	-279.30660	972.51077	-896.25665	-311.66339	986.93038	-522.73942	-295.89869	982.20265	-752.51884	-297.39309	986.92197	-549.69020	-290.95393	985.37218	-720.95643	
1431	14.30000000	-287.60096	544.12755	-480.96091	-265.77348	466.93854	-460.52875	-314.04405	104.09278	-473.87269	-368.88426	53.13050	-523.93428	-177.91283	38.39593	-418.57339	-136.53487	62.91150	-474.57398	-270.98763	539.66042	-777.13466	-243.98767	422.84272	-785.13674	-304.41458	95.28142	-743.51694	-370.10731	53.03182	-701.67696	-155.16237	33.16268	-787.57056	-126.40166	58.81119	-723.95249	-268.18405	354.18638	-448.93472	-342.58770	469.17775	-451.42632	-350.36772	352.78073	-449.97200	-331.96797	433.93422	-800.71010	-333.35501	313.13182	-793.21464	-237.57072	868.63944	-454.56108	-221.01113	757.62916	-462.17461	-272.99391	723.33901	-437.94994	-350.18929	845.53871	-461.26423	-325.73070	731.34144	-455.65612	-213.58567	863.83182	-813.04704	-199.78317	726.47712	-804.13643	-330.64511	851.07330	-827.25284	-308.41928	713.30950	-816.11128	-214.48036	1054.23907	-510.63535	-393.71749	1116.95061	-600.47816	-201.22483	1049.42363	-769.86934	-389.87832	1115.98113	-706.88812	-295.74002	1618.18140	-657.22912	-237.20070	1578.09616	-474.93403	-204.72907	1580.77448	-813.96979	-151.32736	1542.20808	-613.91871	-147.19626	1537.80567	-667.70590	-310.49582	1315.51687	-389.20405	-366.58196	1236.38910	-464.72222	-351.43620	1235.28944	-380.89984	-296.28985	1083.10071	-371.61761	-259.34316	973.72844	-384.17136	-302.91143	974.93558	-374.06159	-259.17338	1321.88905	-897.08620	-333.36918	1250.90025	-841.56451	-303.01765	1242.99586	-902.90376	-266.80890	1072.67239	-903.11090	-240.26453	978.74660	-885.85507	-278.00420	973.32306	-895.63521	-308.17132	987.26915	-522.72445	-292.81879	982.79077	-752.53669	-294.00287	987.49968	-549.73641	-287.82486	985.93955	-720.96530	
1432	14.31000000	-289.69890	544.11236	-481.25193	-267.64117	467.25891	-460.66701	-314.21892	103.98294	-473.90138	-368.89474	53.05784	-523.88558	-177.88351	38.43291	-418.51002	-136.56689	62.92561	-474.57334	-274.08682	540.16539	-777.94241	-246.57237	423.34294	-785.31086	-304.61547	95.00708	-743.08578	-370.15735	52.94866	-701.76520	-155.19247	33.13267	-787.58354	-126.44641	58.82163	-723.96310	-269.70466	354.43597	-449.09882	-344.34359	469.01350	-451.76365	-351.62506	352.60754	-450.04647	-334.65499	433.78814	-800.90208	-335.10205	313.06813	-793.33513	-236.08743	868.53911	-454.25601	-220.90303	757.35929	-462.01082	-273.02907	723.46165	-438.02477	-348.98764	846.58509	-461.24433	-325.74513	732.03769	-455.88573	-212.55402	863.24604	-812.94117	-200.52839	726.10638	-804.32612	-329.36293	851.98270	-826.45963	-309.33516	714.26744	-816.01162	-211.38397	1054.65880	-510.67824	-391.01972	1116.94294	-600.10502	-198.46461	1049.97935	-769.78854	-387.24365	1115.94957	-706.60002	-299.61854	1618.49054	-657.31100	-240.73883	1579.93479	-474.87339	-208.77905	1582.24874	-814.12830	-154.16214	1544.52935	-614.10791	-150.10426	1540.05727	-667.90332	-310.51776	1316.24032	-389.27955	-366.01496	1236.61500	-464.65537	-350.39731	1235.55631	-381.31110	-294.30792	1083.82725	-371.80014	-256.97275	974.52577	-384.27393	-300.42229	975.68875	-373.77703	-260.40703	1322.70247	-896.89428	-333.24188	1250.94063	-840.59356	-303.25057	1243.10215	-901.74114	-266.00607	1073.22476	-902.50180	-238.94312	979.43255	-885.54113	-276.65103	973.83338	-895.05292	-304.91996	987.43874	-522.56995	-289.87718	983.07992	-752.40495	-290.84882	987.83937	-549.68956	-284.78051	986.24298	-720.82754	
1433	14.32000000	-291.47918	544.08118	-481.36793	-269.21052	467.51208	-460.80461	-314.42078	103.75069	-473.91024	-368.91782	52.97125	-523.86399	-177.86451	38.40015	-418.48446	-136.60476	62.91019	-474.58560	-276.79045	540.62941	-778.64997	-248.90888	423.79206	-785.74096	-304.83566	94.69425	-742.53467	-370.17311	52.84357	-701.86078	-155.21364	33.08387	-787.61449	-126.48469	58.80817	-724.00350	-270.85959	354.55545	-449.24358	-345.94147	468.81490	-451.92572	-352.67681	352.45467	-450.15572	-337.03963	433.62965	-801.27527	-336.82618	312.91412	-793.48081	-234.78088	867.95644	-454.15457	-220.50939	757.03974	-461.83507	-272.96427	723.47151	-438.11479	-347.86934	847.45480	-461.08543	-325.60278	732.45096	-456.12297	-211.39718	862.98198	-813.12430	-201.28820	725.66685	-804.36530	-328.47856	852.82450	-826.26938	-310.21960	714.95721	-815.62638	-208.64255	1054.90168	-510.73686	-388.55605	1116.69271	-599.74742	-195.83222	1050.24840	-769.62302	-384.74930	1115.73007	-706.33610	-303.29167	1618.44235	-657.59923	-244.11684	1581.39934	-474.87844	-212.69366	1583.38872	-814.25388	-156.90792	1546.49111	-614.36533	-152.91801	1541.94975	-668.21682	-310.58630	1316.71083	-389.43589	-365.06287	1236.59509	-464.70030	-349.44037	1235.63750	-381.52034	-292.36418	1084.39619	-371.93132	-254.66189	975.10407	-384.28707	-297.97586	976.21444	-373.49295	-261.69428	1323.09308	-896.48581	-333.12210	1250.68084	-839.59146	-303.49151	1242.96560	-900.72172	-265.27640	1073.51499	-902.07830	-237.65179	979.78945	-885.10780	-275.25209	974.04919	-894.62765	-301.97374	987.41039	-522.39566	-287.10423	983.12561	-752.24344	-287.96515	987.88343	-549.74359	-281.85852	986.33927	-720.72903	
